:version 1.10
:name ASF
:units
  mass 1
  length 1
  angle deg
:documentation
  ASF file generated by Kaydara
:root
  axis xyz
  order  tx ty tz rx ry rz
  position 0 0 0
  orientation 0 0 0
:bonedata
  begin
    id 1
    name SpineDummy
    direction 0.999998 -0.00179978 1.38929e-006
    length 3.60008
    axis 0 0 0 xyz
  end
  begin
    id 2
    name Spine
    direction 0.964365 0.262802 0.0305839
    length 8.13928
    axis 1.33928 -1.75354 15.2838 xyz
    dof rx ry rz
  end
  begin
    id 3
    name Spine1
    direction 0.811168 0.572065 0.12144
    length 7.14954
    axis 2.2224 -6.9761 35.2157 xyz
    dof rx ry rz
  end
  begin
    id 4
    name Neck
    direction 0 0 0
    length 0
    axis 2.2224 -6.9761 35.2157 xyz
    dof rx ry rz
  end
  begin
    id 5
    name HeadDummy
    direction 0.810939 0.572387 0.121455
    length 3.55534
    axis 2.2224 -6.9761 35.2157 xyz
  end
  begin
    id 6
    name Head
    direction 0.998226 -0.000232542 0.0595419
    length 7.35666
    axis -3.03688 -3.41352 -0.0133467 xyz
    dof rx ry rz
  end
  begin
    id 7
    name R_ClavicleDummy
    direction 0.531669 -0.194489 -0.824319
    length 2.49392
    axis 2.2224 -6.9761 35.2157 xyz
  end
  begin
    id 8
    name R_Clavicle
    direction -0.155119 0.0480802 -0.986725
    length 4.485
    axis -54.2764 80.6538 162.779 xyz
    dof rx ry rz
  end
  begin
    id 9
    name R_UpperArm
    direction -0.955567 0.200068 -0.216484
    length 10.1122
    axis -72.9943 12.5026 168.175 xyz
    dof rx ry rz
  end
  begin
    id 10
    name R_Forearm
    direction -0.61433 0.385743 0.688332
    length 9.39148
    axis -117.015 -43.4982 147.875 xyz
    dof rx ry rz
  end
  begin
    id 11
    name R_Hand
    direction -0.699429 0.0170333 0.714499
    length 3.66324
    axis -45.0303 -36.7097 175.478 xyz
    dof rx ry rz
  end
  begin
    id 12
    name L_ClavicleDummy
    direction 0.40287 -0.36502 0.839319
    length 2.49392
    axis 2.2224 -6.9761 35.2157 xyz
  end
  begin
    id 13
    name L_Clavicle
    direction -0.231271 -0.0726419 0.970174
    length 4.485
    axis 18.4357 -75.9711 -162.563 xyz
    dof rx ry rz
  end
  begin
    id 14
    name L_UpperArm
    direction -0.917494 0.144359 0.370629
    length 10.1122
    axis 56.0417 -21.7544 171.058 xyz
    dof rx ry rz
  end
  begin
    id 15
    name L_Forearm
    direction -0.496786 0.615074 -0.612281
    length 9.39148
    axis 89.8094 37.7546 128.927 xyz
    dof rx ry rz
  end
  begin
    id 16
    name L_Hand
    direction -0.409932 0.64962 -0.640274
    length 3.66324
    axis -0.424369 32.133 128.52 xyz
    dof rx ry rz
  end
  begin
    id 17
    name L_ThighDummy
    direction -1.84081e-006 1.87549e-006 1
    length 3.13049
    axis 0 0 0 xyz
  end
  begin
    id 18
    name L_Thigh
    direction -0.947739 0.307978 0.083308
    length 17.9961
    axis 173.219 -4.77873 161.998 xyz
    dof rx ry rz
  end
  begin
    id 19
    name L_Calf
    direction -0.728814 -0.684427 0.0197583
    length 13.3367
    axis 167.331 -1.13214 -136.799 xyz
    dof rx ry rz
  end
  begin
    id 20
    name L_Foot
    direction -0.9028 0.418719 0.0981191
    length 5.8674
    axis 163.436 11.5135 -155.37 xyz
    dof rx ry rz
  end
  begin
    id 21
    name L_Toe0
    direction -0.35341 0.886259 0.299411
    length 4.75286
    axis 169.316 -17.4222 111.74 xyz
    dof rx ry rz
  end
  begin
    id 22
    name R_ThighDummy
    direction 9.32778e-007 -8.82053e-007 -1
    length 3.13049
    axis 0 0 0 xyz
  end
  begin
    id 23
    name R_Thigh
    direction -0.925064 0.37528 -0.0585023
    length 17.9961
    axis -178.698 3.35385 157.919 xyz
    dof rx ry rz
  end
  begin
    id 24
    name R_Calf
    direction -0.68969 -0.718776 -0.0876886
    length 13.3367
    axis -160.504 5.03065 -133.817 xyz
    dof rx ry rz
  end
  begin
    id 25
    name R_Foot
    direction -0.857405 0.418858 -0.299022
    length 5.8674
    axis -161.328 4.38911 -154.413 xyz
    dof rx ry rz
  end
  begin
    id 26
    name R_Toe0
    direction -0.100745 0.952789 -0.286433
    length 4.75286
    axis 171.683 16.6445 96.0359 xyz
    dof rx ry rz
  end
:hierarchy
  begin
    root SpineDummy L_ThighDummy R_ThighDummy
    SpineDummy Spine
    Spine Spine1
    Spine1 Neck
    Neck HeadDummy R_ClavicleDummy L_ClavicleDummy
    HeadDummy Head
    R_ClavicleDummy R_Clavicle
    R_Clavicle R_UpperArm
    R_UpperArm R_Forearm
    R_Forearm R_Hand
    L_ClavicleDummy L_Clavicle
    L_Clavicle L_UpperArm
    L_UpperArm L_Forearm
    L_Forearm L_Hand
    L_ThighDummy L_Thigh
    L_Thigh L_Calf
    L_Calf L_Foot
    L_Foot L_Toe0
    R_ThighDummy R_Thigh
    R_Thigh R_Calf
    R_Calf R_Foot
    R_Foot R_Toe0
  end

:SAMPLES-PER-SECOND 30
:FULLY-SPECIFIED
:DEGREES
214
root  4.77949 12.8005 3.28279 151.361 -21.0576 149.65
Spine  -28.3907 -17.4401 26.0743
Spine1  -27.9488 44.4163 -16.1358
Neck  3.97569e-016 0 -2.38542e-015
Head  -5.26405 2.45726 36.9336
R_Clavicle  1.44205 4.15003 6.56733
R_UpperArm  53.8908 -41.365 39.3297
R_Forearm  33.7993 11.1052 -9.52616
R_Hand  -35.0641 30.5158 -106.785
L_Clavicle  0.882796 -4.70603 -4.15169
L_UpperArm  -33.0695 -15.9388 -42.7295
L_Forearm  15.9187 4.34173 5.0197
L_Hand  0.0475966 -9.4167 -0.493378
L_Thigh  -39.5456 -30.3571 26.5473
L_Calf  2.61549 7.47881 -72.6448
L_Foot  4.50815 -3.59325 29.0453
L_Toe0  -0.192704 0.154083 -6.79176
R_Thigh  22.1347 -0.332201 16.0409
R_Calf  17.3631 -0.718482 -2.39723
R_Foot  -12.8439 -42.4153 1.58524
R_Toe0  -1.78867 -0.272784 -17.3234
215
root  3.90144 14.2361 2.13525 142.986 -26.6946 148.768
Spine  -27.3147 -15.3543 25.9256
Spine1  -28.5266 43.2305 -17.2404
Neck  3.97569e-016 0 -2.38542e-015
Head  -3.39032 1.41254 34.3991
R_Clavicle  1.59647 6.17208 6.8894
R_UpperArm  56.2599 -34.1755 32.9946
R_Forearm  35.7572 10.3061 -8.91196
R_Hand  -33.317 32.2301 -100.949
L_Clavicle  0.918247 -1.98168 -5.47611
L_UpperArm  -36.3824 -12.1247 -42.6428
L_Forearm  9.79327 14.8828 17.8083
L_Hand  0.0781277 -8.77916 -1.78607
L_Thigh  -33.6822 -20.0784 24.1148
L_Calf  -7.9629 6.89428 -61.7043
L_Foot  6.44773 0.936251 27.5096
L_Toe0  0.505156 0.034446 -6.1361
R_Thigh  10.8824 0.0215111 17.8557
R_Calf  16.7667 2.26321 6.9307
R_Foot  -11.4747 -44.9923 -3.44105
R_Toe0  -1.7617 -0.274039 -17.3476
216
root  3.16833 15.7813 1.25579 133.417 -30.4798 149.373
Spine  -27.5848 -13.9963 27.4658
Spine1  -27.8723 42.8522 -14.9249
Neck  3.97569e-016 0 -2.38542e-015
Head  1.46137 -1.55118 31.3464
R_Clavicle  1.74573 7.8561 7.20914
R_UpperArm  57.6102 -24.8621 23.1508
R_Forearm  31.9073 9.04573 -7.89775
R_Hand  -31.3825 35.0343 -93.3095
L_Clavicle  0.758686 0.33624 -5.56078
L_UpperArm  -39.4962 -12.883 -39.1804
L_Forearm  2.02515 23.5347 30.7058
L_Hand  0.0523691 -7.6011 -1.63455
L_Thigh  -25.5654 -14.7421 17.9857
L_Calf  -8.65609 6.14362 -51.5644
L_Foot  6.99813 5.6185 21.0327
L_Toe0  0.505156 0.034446 -6.1361
R_Thigh  3.06465 -0.423974 20.9483
R_Calf  10.6714 2.44908 7.54544
R_Foot  -3.92696 -28.1712 -10.771
R_Toe0  -1.88446 -0.287826 -17.2531
217
root  2.61373 17.1875 0.82665 124.098 -32.7102 149.442
Spine  -27.9351 -13.803 30.4847
Spine1  -27.332 44.1932 -13.7444
Neck  3.97569e-016 0 -2.38542e-015
Head  6.50673 -6.07902 29.4419
R_Clavicle  2.12711 8.72494 8.48745
R_UpperArm  56.9066 -14.3065 14.1268
R_Forearm  28.417 7.4937 -6.97763
R_Hand  -28.5184 36.813 -85.3258
L_Clavicle  0.743253 2.20163 -6.58812
L_UpperArm  -38.9191 -15.6954 -34.2134
L_Forearm  -11.1468 30.0619 46.4651
L_Hand  0.0143398 -5.91926 0.521434
L_Thigh  -16.0008 -13.5872 10.8184
L_Calf  3.56925 5.15151 -40.88
L_Foot  5.50813 5.00199 16.6473
L_Toe0  0.747113 0.00822622 -6.28003
R_Thigh  1.00997 -0.0988605 23.1767
R_Calf  3.7593 -1.53236 -4.90352
R_Foot  -2.01367 -8.87075 -2.59179
R_Toe0  -4.0874 -0.113718 -15.1901
218
root  2.34461 18.1299 0.519686 114.604 -34.6442 146.292
Spine  -26.5473 -14.3502 32.7458
Spine1  -25.773 45.5363 -14.2004
Neck  3.97569e-016 0 -2.38542e-015
Head  10.4731 -10.3448 28.6347
R_Clavicle  2.48943 9.79777 9.59688
R_UpperArm  54.6192 -6.13341 7.57205
R_Forearm  28.6728 6.82564 -7.01276
R_Hand  -27.779 38.4092 -81.9929
L_Clavicle  0.762306 4.00884 -8.20822
L_UpperArm  -36.2564 -17.8316 -28.96
L_Forearm  -27.6641 34.5411 62.025
L_Hand  0.104998 -3.71531 5.49585
L_Thigh  -8.62569 -12.3916 6.8501
L_Calf  18.1397 3.65329 -27.4849
L_Foot  2.41021 0.828874 10.0236
L_Toe0  -1.46273 0.119967 -5.3592
R_Thigh  -0.622267 2.66559 23.9522
R_Calf  0.36794 -7.93554 -25.6312
R_Foot  -0.977796 0.0603933 7.9919
R_Toe0  -11.3658 1.90776 -7.44721
219
root  2.04469 18.7913 0.148994 105.323 -38.3568 139.832
Spine  -23.5691 -14.199 31.5207
Spine1  -22.3578 42.7911 -13.1477
Neck  3.97569e-016 0 -2.38542e-015
Head  13.8277 -12.3818 27.2355
R_Clavicle  2.5643 11.139 9.57535
R_UpperArm  52.4888 -1.58065 2.16383
R_Forearm  30.7283 6.69723 -7.27925
R_Hand  -27.8511 38.598 -81.9288
L_Clavicle  0.676721 5.42152 -8.78059
L_UpperArm  -36.5606 -16.6332 -20.5015
L_Forearm  -46.3674 34.7297 60.2242
L_Hand  -0.105473 -5.81708 8.6678
L_Thigh  -2.07444 -10.4655 6.29658
L_Calf  27.4861 1.52243 -10.8287
L_Foot  -0.872987 -3.96577 0.906983
L_Toe0  -11.7223 2.42655 4.31251
R_Thigh  -4.61986 3.83199 22.1377
R_Calf  2.90292 -12.6957 -44.2195
R_Foot  0.239374 4.47028 13.7871
R_Toe0  -21.2819 8.32537 4.03224
220
root  1.60083 19.3853 -0.111874 97.9834 -44.1683 130.451
Spine  -19.0497 -13.1673 25.6098
Spine1  -16.5071 36.51 -7.05208
Neck  3.97569e-016 0 -2.38542e-015
Head  16.7402 -12.4466 23.1968
R_Clavicle  2.46854 12.2811 9.01207
R_UpperArm  51.4791 1.69592 -2.52135
R_Forearm  34.7848 6.76686 -7.14127
R_Hand  -27.0195 36.9749 -82.2077
L_Clavicle  0.599329 5.70585 -8.26196
L_UpperArm  -40.0756 -8.04734 -5.33322
L_Forearm  -73.2068 19.5168 27.9765
L_Hand  -0.0467732 -22.8598 0.928411
L_Thigh  8.74028 -7.23976 6.01582
L_Calf  27.1099 -0.849192 6.64079
L_Foot  -1.35064 -5.59314 0.394916
L_Toe0  -15.1553 7.99911 23.7653
R_Thigh  -10.8106 -0.308599 20.1742
R_Calf  8.86795 -14.9112 -55.5532
R_Foot  1.814 8.38864 16.5438
R_Toe0  -22.6085 10.9432 4.4919
221
root  1.37763 19.6648 -0.196351 93.4543 -50.8973 119.178
Spine  -13.9249 -11.9133 17.1146
Spine1  -10.6588 29.4085 0.239433
Neck  3.97569e-016 0 -2.38542e-015
Head  18.653 -12.0986 18.7008
R_Clavicle  2.2636 12.062 8.36256
R_UpperArm  50.9509 4.84692 -4.27458
R_Forearm  42.0614 7.2909 -7.50011
R_Hand  -26.8761 35.9594 -83.1618
L_Clavicle  0.372914 6.96775 -7.06251
L_UpperArm  -42.2857 -4.20281 -0.334664
L_Forearm  -81.4967 8.50042 14.8223
L_Hand  2.54252 -32.9415 -9.94058
L_Thigh  18.8188 -1.09414 5.07434
L_Calf  8.47684 -2.59128 19.5609
L_Foot  -0.440975 -7.12144 9.77119
L_Toe0  -14.7461 8.09399 24.8661
R_Thigh  -17.7222 -9.54628 19.9205
R_Calf  16.0621 -15.1286 -56.8741
R_Foot  1.1919 7.44756 20.8167
R_Toe0  -4.15806 -0.797464 -15.4475
222
root  1.42183 19.6003 -0.126827 91.4556 -56.2333 107.326
Spine  -8.85193 -10.4786 9.68137
Spine1  -5.82837 23.0265 4.16788
Neck  3.97569e-016 0 -2.38542e-015
Head  18.2057 -11.9305 16.8664
R_Clavicle  1.76076 9.65806 7.08726
R_UpperArm  51.0015 7.5958 -1.14183
R_Forearm  50.1432 7.24057 -8.15074
R_Hand  -27.2097 36.2039 -83.5419
L_Clavicle  0.00146961 10.2044 -5.55738
L_UpperArm  -43.0891 -0.0153123 0.318054
L_Forearm  -85.2616 -0.24843 5.67318
L_Hand  7.93131 -36.1026 -26.9352
L_Thigh  17.8013 6.8853 4.22589
L_Calf  -16.5265 -3.33485 25.2578
L_Foot  0.331298 -7.6145 16.2752
L_Toe0  -20.2518 4.57429 4.33949
R_Thigh  -23.4438 -18.5218 23.7211
R_Calf  20.6184 -12.8062 -44.8826
R_Foot  0.15012 4.80226 17.1335
R_Toe0  -1.55175 -0.181421 -17.6883
